<svg id="Group_12" data-name="Group 12" xmlns="http://www.w3.org/2000/svg" viewBox="1290.8 -533.421 273.844 230.421">
  <defs>
    <style>
      .cls-1, .cls-3 {
        fill: #dcf2e5;
      }

      .cls-1, .cls-2, .cls-3, .cls-4, .cls-5, .cls-6, .cls-7, .cls-8 {
        stroke: #16325c;
      }

      .cls-1, .cls-2, .cls-5 {
        stroke-width: 4px;
      }

      .cls-2, .cls-4 {
        fill: #52be7f;
      }

      .cls-3, .cls-4 {
        stroke-width: 3px;
      }

      .cls-10, .cls-5, .cls-7 {
        fill: none;
      }

      .cls-6, .cls-8 {
        fill: #16325c;
      }

      .cls-6 {
        stroke-width: 2px;
      }

      .cls-7, .cls-8 {
        stroke-width: 8px;
      }

      .cls-9 {
        stroke: none;
      }
    </style>
  </defs>
  <path id="Path_597" data-name="Path 597" class="cls-1" d="M2,2H16.125V15.4L10.453,59.406,2,15.4Z" transform="translate(1509.748 -488.206)"/>
  <path id="Path_275" data-name="Path 275" class="cls-2" d="M8.013,0l2.1,2.247s4.461,31.917,8.195,31.808S25.05,1.812,25.05,1.812L26.572,0a33.023,33.023,0,0,1,16.69,7.31c.4.343,1,.918,1.58,1.535,7.341,7.812,11.092,22.4,11.092,22.4l4.64,55.68H52.382s-4.64-41.108-6.525-42.2-1.015,37.845-1.015,37.845l-51.91.072s2.519-42.848,0-41.615S-17.145,87.58-17.145,87.58l-8.555-.653,4.857-55.68s3.081-14.591,10.295-22.4S8.013,0,8.013,0Z" transform="translate(1501.59 -478.056)"/>
  <path id="Path_576" data-name="Path 576" class="cls-2" d="M.5.5H49.8V80.25h-10L37.717,14.758s.128-2.892-.894-4.18-3.2-.974-3.2-.974l-14.7.7s-3.233.151-4.726,1.941-1.244,5.22-1.244,5.22L10.867,80.25H.5Z" transform="translate(1495.11 -395.543)"/>
  <path id="Path_578" data-name="Path 578" class="cls-1" d="M2.99-.5h7.685l.8,14.21s-2.3,2.574-4.423,2.248S2.99,12.4,2.99,12.4s1.287-2.61.8-3.48-1.758.652-2.755,0S-.2,6.315-.2,6.315Z" transform="translate(1551.128 -388.743)"/>
  <path id="Path_579" data-name="Path 579" class="cls-1" d="M7.334-.5H.508L-.2,13.71s2.045,2.574,3.928,2.248S7.334,12.4,7.334,12.4s-1.143-2.61-.708-3.48,1.561.652,2.447,0,1.095-2.61,1.095-2.61Z" transform="translate(1475.8 -389.468)"/>
  <path id="Path_580" data-name="Path 580" class="cls-3" d="M.147.5H42.922V13.71a10.5,10.5,0,0,1-.435,3.32,6,6,0,0,1-1.595,2.32L28.829,31.082a4.02,4.02,0,0,1-1.059.738,5.263,5.263,0,0,1-1.355.362H16.72a6.831,6.831,0,0,1-1.711-.362,3.229,3.229,0,0,1-1.142-.79L.793,17.837.147,16.368l-.91-2.819Z" transform="translate(1498.364 -512.268)"/>
  <path id="Path_581" data-name="Path 581" class="cls-4" d="M9.149-1.229s-.107-.173.58,0S11.9-.538,11.9-.538l7.331,1.846H32.1a10.124,10.124,0,0,1,3.22.58,6.233,6.233,0,0,1,2.251,1.69L47.182,14.3a8.52,8.52,0,0,1,1.77,2.6,7.279,7.279,0,0,1,.363,2.97v4.787s.58,2.827-3.045,3.117-3.7-2.465-3.7-2.465l-.206-3.871a3.2,3.2,0,0,0-.882-2.219,4.794,4.794,0,0,0-2.655-.637l-29.137.762A12.006,12.006,0,0,1,6.612,19,5.31,5.31,0,0,1,4.52,17.8L2.732,16.035a3.382,3.382,0,0,1-1.341-1.894,4.56,4.56,0,0,1,.667-2.472L7.844,1.145Z" transform="translate(1494.146 -530.622)"/>
  <g id="Ellipse_193" data-name="Ellipse 193" class="cls-4" transform="translate(1507.573 -503.431)">
    <ellipse class="cls-9" cx="2.537" cy="1.885" rx="2.537" ry="1.885"/>
    <ellipse class="cls-10" cx="2.537" cy="1.885" rx="1.037" ry="0.385"/>
  </g>
  <g id="Ellipse_194" data-name="Ellipse 194" class="cls-4" transform="translate(1525.698 -503.431)">
    <ellipse class="cls-9" cx="2.537" cy="1.885" rx="2.537" ry="1.885"/>
    <ellipse class="cls-10" cx="2.537" cy="1.885" rx="1.037" ry="0.385"/>
  </g>
  <path id="Path_582" data-name="Path 582" class="cls-2" d="M2.725,2A17.691,17.691,0,0,0,8.017,3.031,13.541,13.541,0,0,0,12.875,2c.4,0,.725.074.725.166V2.5c0,.092-.325.166-.725.166A13.169,13.169,0,0,1,8.017,3.731,17.186,17.186,0,0,1,2.725,2.665C2.325,2.665,2,2.59,2,2.5V2.166C2,2.074,2.325,2,2.725,2Z" transform="translate(1511.373 -493.831)"/>
  <path id="Path_583" data-name="Path 583" class="cls-1" d="M14.358,2h8.51a3.279,3.279,0,0,1,2.148.725,3.836,3.836,0,0,1,.652,2.3V7.2a1.967,1.967,0,0,1-.652,1.612,4.636,4.636,0,0,1-2.275.435H7.031s-5.47.453-5.94-.435S6.981,6.726,10.3,5.022,14.358,2,14.358,2Z" transform="translate(1521.054 -316.206)"/>
  <path id="Path_584" data-name="Path 584" class="cls-1" d="M14.358,2h8.51a3.279,3.279,0,0,1,2.148.725,3.836,3.836,0,0,1,.652,2.3V7.2a1.967,1.967,0,0,1-.652,1.612,4.636,4.636,0,0,1-2.275.435H7.031s-5.47.453-5.94-.435S6.981,6.726,10.3,5.022,14.358,2,14.358,2Z" transform="translate(1481.179 -316.206)"/>
  <line id="Line_598" data-name="Line 598" class="cls-5" y2="54" transform="translate(1519.5 -449.5)"/>
  <g id="Rectangle_1" data-name="Rectangle 1" class="cls-6" transform="translate(1290.8 -327)">
    <rect class="cls-9" width="178.2" height="4" rx="2"/>
    <rect class="cls-10" x="1" y="1" width="176.2" height="2" rx="1"/>
  </g>
  <g id="Rectangle_565" data-name="Rectangle 565" class="cls-6" transform="translate(1290.8 -307)">
    <rect class="cls-9" width="178.2" height="4" rx="2"/>
    <rect class="cls-10" x="1" y="1" width="176.2" height="2" rx="1"/>
  </g>
  <g id="Rectangle_3" data-name="Rectangle 3" class="cls-7" transform="translate(1315 -327) rotate(90)">
    <rect class="cls-9" width="24" height="16"/>
    <rect class="cls-10" x="4" y="4" width="16" height="8"/>
  </g>
  <g id="Rectangle_4" data-name="Rectangle 4" class="cls-8" transform="translate(1461 -327) rotate(90)">
    <rect class="cls-9" width="24" height="16"/>
    <rect class="cls-10" x="4" y="4" width="16" height="8"/>
  </g>
  <g id="Rectangle_5" data-name="Rectangle 5" class="cls-8" transform="translate(1388 -327) rotate(90)">
    <rect class="cls-9" width="24" height="16"/>
    <rect class="cls-10" x="4" y="4" width="16" height="8"/>
  </g>
  <g id="Rectangle_6" data-name="Rectangle 6" class="cls-1" transform="translate(1299 -394)">
    <rect class="cls-9" width="162" height="63" rx="8"/>
    <rect class="cls-10" x="2" y="2" width="158" height="59" rx="6"/>
  </g>
  <g id="Rectangle_7" data-name="Rectangle 7" class="cls-1" transform="translate(1299 -489)">
    <rect class="cls-9" width="99" height="91" rx="8"/>
    <rect class="cls-10" x="2" y="2" width="95" height="87" rx="6"/>
  </g>
</svg>
