<svg xmlns="http://www.w3.org/2000/svg" viewBox="1607 4908 477.068 190.112">
  <defs>
    <style>
      .cls-1 {
        fill: #52be7f;
      }

      .cls-2 {
        fill: none;
      }

      .cls-2, .cls-3 {
        stroke: #54698d;
      }

      .cls-3 {
        fill: #fafbfd;
      }
    </style>
  </defs>
  <g id="Group_225" data-name="Group 225" transform="translate(867 4352)">
    <rect id="Rectangle_332" data-name="Rectangle 332" class="cls-1" width="397" height="137" rx="7" transform="translate(740 579)"/>
    <line id="Line_212" data-name="Line 212" class="cls-2" x2="189.34" transform="translate(763.146 722.59)"/>
    <line id="Line_193" data-name="Line 193" class="cls-2" x2="409.452" transform="translate(749.5 561.724)"/>
    <line id="Line_194" data-name="Line 194" class="cls-2" x2="467.568" transform="translate(749.5 701.73)"/>
    <line id="Line_195" data-name="Line 195" class="cls-2" y2="153.127" transform="translate(1150.147 556)"/>
    <line id="Line_196" data-name="Line 196" class="cls-2" y2="153.127" transform="translate(755.664 556)"/>
    <line id="Line_197" data-name="Line 197" class="cls-2" y2="96.156" transform="translate(806.735 584.794)"/>
    <line id="Line_203" data-name="Line 203" class="cls-2" y2="96.156" transform="translate(921.206 584.794)"/>
    <line id="Line_207" data-name="Line 207" class="cls-2" y2="96.156" transform="translate(1035.676 584.794)"/>
    <line id="Line_199" data-name="Line 199" class="cls-2" y2="96.156" transform="translate(863.97 584.794)"/>
    <line id="Line_201" data-name="Line 201" class="cls-2" y2="96.156" transform="translate(978.441 584.794)"/>
    <line id="Line_205" data-name="Line 205" class="cls-2" y2="96.156" transform="translate(1092.911 584.794)"/>
    <line id="Line_198" data-name="Line 198" class="cls-2" y2="96.156" transform="translate(812.899 584.794)"/>
    <line id="Line_204" data-name="Line 204" class="cls-2" y2="96.156" transform="translate(927.37 584.794)"/>
    <line id="Line_208" data-name="Line 208" class="cls-2" y2="96.156" transform="translate(1041.84 584.794)"/>
    <line id="Line_200" data-name="Line 200" class="cls-2" y2="96.156" transform="translate(870.134 584.794)"/>
    <line id="Line_202" data-name="Line 202" class="cls-2" y2="96.156" transform="translate(984.605 584.794)"/>
    <line id="Line_206" data-name="Line 206" class="cls-2" y2="96.156" transform="translate(1099.075 584.794)"/>
    <line id="Line_209" data-name="Line 209" class="cls-2" y2="28.177" transform="translate(767.991 699.088)"/>
    <line id="Line_211" data-name="Line 211" class="cls-2" y2="14.969" transform="translate(1212.665 697.327)"/>
    <line id="Line_210" data-name="Line 210" class="cls-2" x2="454.36" transform="translate(762.708 708.774)"/>
    <g id="Group_223" data-name="Group 223" transform="translate(826.512 699.13)">
      <path id="Path_252" data-name="Path 252" class="cls-3" d="M21.993,0A21.993,21.993,0,1,1,0,21.993,21.993,21.993,0,0,1,21.993,0Z" transform="translate(0 0)"/>
      <path id="Path_253" data-name="Path 253" class="cls-3" d="M12.567,0A12.567,12.567,0,1,1,0,12.567,12.567,12.567,0,0,1,12.567,0Z" transform="translate(9.426 9.425)"/>
      <ellipse id="Ellipse_57" data-name="Ellipse 57" class="cls-1" cx="12.567" cy="12.567" rx="12.567" ry="12.567" transform="translate(6.579 13.696)"/>
      <ellipse id="Ellipse_69" data-name="Ellipse 69" class="cls-2" cx="12.567" cy="12.567" rx="12.567" ry="12.567" transform="translate(9.278 9.425)"/>
    </g>
    <g id="Group_224" data-name="Group 224" transform="translate(774.56 699.13)">
      <path id="Path_252-2" data-name="Path 252" class="cls-3" d="M21.993,0A21.993,21.993,0,1,1,0,21.993,21.993,21.993,0,0,1,21.993,0Z" transform="translate(0 0)"/>
      <path id="Path_253-2" data-name="Path 253" class="cls-3" d="M12.567,0A12.567,12.567,0,1,1,0,12.567,12.567,12.567,0,0,1,12.567,0Z" transform="translate(9.426 9.425)"/>
      <ellipse id="Ellipse_57-2" data-name="Ellipse 57" class="cls-1" cx="12.567" cy="12.567" rx="12.567" ry="12.567" transform="translate(6.579 13.696)"/>
      <ellipse id="Ellipse_69-2" data-name="Ellipse 69" class="cls-2" cx="12.567" cy="12.567" rx="12.567" ry="12.567" transform="translate(9.278 9.425)"/>
    </g>
    <line id="Line_213" data-name="Line 213" class="cls-2" y1="17.083" x2="49.826" transform="translate(938.961 707.642)"/>
    <line id="Line_215" data-name="Line 215" class="cls-2" x1="4.403" y2="41.386" transform="matrix(0.966, -0.259, 0.259, 0.966, 1189.699, 705.957)"/>
    <line id="Line_216" data-name="Line 216" class="cls-2" x2="19.354" y2="39.997" transform="translate(1183.607 705.252)"/>
  </g>
</svg>
