<svg xmlns="http://www.w3.org/2000/svg" viewBox="3913.552 19050 323.448 171">
  <defs>
    <style>
      .cls-1 {
        fill: #52be7f;
      }

      .cls-1, .cls-2, .cls-3, .cls-4, .cls-5 {
        stroke: #16325c;
        stroke-width: 8px;
      }

      .cls-2 {
        fill: #dcf2e5;
      }

      .cls-3, .cls-8 {
        fill: none;
      }

      .cls-4 {
        fill: rgba(0,0,0,0);
      }

      .cls-5 {
        fill: #fff;
      }

      .cls-6 {
        fill: #16325c;
        font-size: 19px;
        font-family: SegoeUI-Bold, Segoe UI;
        font-weight: 700;
      }

      .cls-7 {
        stroke: none;
      }
    </style>
  </defs>
  <g id="Group_596" data-name="Group 596" transform="translate(3738 18140)">
    <g id="Group_595" data-name="Group 595" transform="translate(-128 -1628)">
      <path id="Path_485" data-name="Path 485" class="cls-1" d="M4,38.5S3.9,20.084,9.1,13.263,22.8,4,22.8,4H76s16.7.569,26.2,6.653S114,28.337,114,28.337V84H4Z" transform="translate(509 2621)"/>
      <g id="Rectangle_445" data-name="Rectangle 445" class="cls-2" transform="translate(307 2538)">
        <rect class="cls-7" width="183" height="122" rx="6"/>
        <rect class="cls-8" x="4" y="4" width="175" height="114" rx="2"/>
      </g>
      <path id="Path_486" data-name="Path 486" class="cls-1" d="M5.924,4H41.807A2,2,0,0,1,43.8,6.006L22.669,96.994A2,2,0,0,1,20.676,99H-15.206A2,2,0,0,1-17.2,96.994L3.931,6.006A2,2,0,0,1,5.924,4Z" transform="translate(370 2606)"/>
      <g id="Rectangle_448" data-name="Rectangle 448" class="cls-3" transform="translate(383 2701)">
        <rect class="cls-7" width="69" height="8" rx="4"/>
        <rect class="cls-8" x="4" y="4" width="61"/>
      </g>
      <g id="Rectangle_449" data-name="Rectangle 449" class="cls-3" transform="translate(436 2693)">
        <rect class="cls-7" width="38" height="16" rx="8"/>
        <rect class="cls-8" x="4" y="4" width="30" height="8" rx="4"/>
      </g>
      <path id="Path_489" data-name="Path 489" class="cls-3" d="M6.5,2l56,2A2.5,2.5,0,0,1,65,6.5c0,1.381-1.119,3.4-2.5,3.4H6.5C5.119,9.9,4,7.881,4,6.5S5.119,2,6.5,2Z" transform="translate(458 2695)"/>
      <g id="Rectangle_447" data-name="Rectangle 447" class="cls-3" transform="translate(498.5 2542.5) rotate(90)">
        <rect class="cls-7" width="115" height="8" rx="4"/>
        <rect class="cls-8" x="4" y="4" width="107"/>
      </g>
      <path id="Path_487" data-name="Path 487" class="cls-2" d="M4,4H69V37.2s-.7,10.15-5.2,16.1S51,61,51,61H23.6s-6.055.345-13.1-6.7S4,39.4,4,39.4Z" transform="translate(525 2570)"/>
      <path id="Path_488" data-name="Path 488" class="cls-1" d="M6,4H75a2,2,0,0,1,2,2V20.2c0,.545-4.525,7.449-11.5,12.4A51.818,51.818,0,0,1,49.1,40H28.8a42.352,42.352,0,0,1-14.7-7.4C8.341,28.021,4,20.745,4,20.2V6A2,2,0,0,1,6,4Z" transform="translate(513 2547)"/>
      <path id="Path_490" data-name="Path 490" class="cls-1" d="M5.1,4h37.81A1.1,1.1,0,0,1,44,5.1v7.781a21.856,21.856,0,0,1-6.3,6.794,28.394,28.394,0,0,1-8.987,4.055H17.589a23.207,23.207,0,0,1-8.055-4.055A22.147,22.147,0,0,1,4,12.877V5.1A1.1,1.1,0,0,1,5.1,4Z" transform="translate(604.227 2553.5) rotate(90)"/>
      <path id="Path_491" data-name="Path 491" class="cls-4" d="M0,39s21.9,1.7,28.4-11.9,4.3-37.4,4.3-37.4" transform="translate(572.5 2604.5)"/>
      <g id="Ellipse_173" data-name="Ellipse 173" class="cls-5" transform="translate(563 2637)">
        <ellipse class="cls-7" cx="7" cy="6.5" rx="7" ry="6.5"/>
        <ellipse class="cls-8" cx="7" cy="6.5" rx="3" ry="2.5"/>
      </g>
      <g id="Rectangle_450" data-name="Rectangle 450" class="cls-2" transform="translate(594 2570)">
        <rect class="cls-7" width="23" height="26" rx="6"/>
        <rect class="cls-8" x="4" y="4" width="15" height="18" rx="2"/>
      </g>
    </g>
    <text id="Transportation_company" data-name="Transportation company" class="cls-6" transform="translate(175.552 920.844)"><tspan x="29.542" y="21">Transportation </tspan><tspan x="54.887" y="47">company</tspan></text>
  </g>
</svg>
