<svg xmlns="http://www.w3.org/2000/svg" viewBox="3116.4 5482.365 271.76 160.635">
  <defs>
    <style>
      .cls-1 {
        fill: #52be7f;
      }

      .cls-2, .cls-6 {
        fill: none;
      }

      .cls-2 {
        stroke: #54698d;
      }

      .cls-3 {
        fill: #54698d;
      }

      .cls-4 {
        fill: rgba(0,0,0,0);
        stroke: #a8b8d0;
      }

      .cls-5 {
        stroke: none;
      }
    </style>
  </defs>
  <g id="Group_244" data-name="Group 244" transform="translate(2960 3940)">
    <ellipse id="Ellipse_64" data-name="Ellipse 64" class="cls-1" cx="12.928" cy="12.839" rx="12.928" ry="12.839" transform="translate(399.305 1670.563)"/>
    <ellipse id="Ellipse_67" data-name="Ellipse 67" class="cls-1" cx="12.928" cy="12.839" rx="12.928" ry="12.839" transform="translate(210.431 1578.661)"/>
    <ellipse id="Ellipse_66" data-name="Ellipse 66" class="cls-1" cx="12.928" cy="12.839" rx="12.928" ry="12.839" transform="translate(303.367 1570.552)"/>
    <ellipse id="Ellipse_68" data-name="Ellipse 68" class="cls-1" cx="12.928" cy="12.839" rx="12.928" ry="12.839" transform="translate(156.4 1644.885)"/>
    <ellipse id="Ellipse_65" data-name="Ellipse 65" class="cls-1" cx="12.928" cy="12.839" rx="12.928" ry="12.839" transform="translate(285.678 1677.321)"/>
    <ellipse id="Ellipse_63" data-name="Ellipse 63" class="cls-1" cx="12.928" cy="12.839" rx="12.928" ry="12.839" transform="translate(399.305 1552.982)"/>
    <g id="Ellipse_16" data-name="Ellipse 16" class="cls-2" transform="translate(402.305 1665.563)">
      <ellipse class="cls-5" cx="12.928" cy="12.839" rx="12.928" ry="12.839"/>
      <ellipse class="cls-6" cx="12.928" cy="12.839" rx="12.428" ry="12.339"/>
    </g>
    <g id="Ellipse_13" data-name="Ellipse 13" class="cls-2" transform="translate(213.431 1573.661)">
      <ellipse class="cls-5" cx="12.928" cy="12.839" rx="12.928" ry="12.839"/>
      <ellipse class="cls-6" cx="12.928" cy="12.839" rx="12.428" ry="12.339"/>
    </g>
    <g id="Ellipse_17" data-name="Ellipse 17" class="cls-2" transform="translate(306.367 1565.552)">
      <ellipse class="cls-5" cx="12.928" cy="12.839" rx="12.928" ry="12.839"/>
      <ellipse class="cls-6" cx="12.928" cy="12.839" rx="12.428" ry="12.339"/>
    </g>
    <g id="Ellipse_12" data-name="Ellipse 12" class="cls-2" transform="translate(159.4 1639.885)">
      <ellipse class="cls-5" cx="12.928" cy="12.839" rx="12.928" ry="12.839"/>
      <ellipse class="cls-6" cx="12.928" cy="12.839" rx="12.428" ry="12.339"/>
    </g>
    <g id="Ellipse_14" data-name="Ellipse 14" class="cls-2" transform="translate(288.678 1672.321)">
      <ellipse class="cls-5" cx="12.928" cy="12.839" rx="12.928" ry="12.839"/>
      <ellipse class="cls-6" cx="12.928" cy="12.839" rx="12.428" ry="12.339"/>
    </g>
    <g id="Ellipse_15" data-name="Ellipse 15" class="cls-2" transform="translate(402.305 1547.982)">
      <ellipse class="cls-5" cx="12.928" cy="12.839" rx="12.928" ry="12.839"/>
      <ellipse class="cls-6" cx="12.928" cy="12.839" rx="12.428" ry="12.339"/>
    </g>
    <g id="phone-call" transform="translate(294.085 1677.799)">
      <path id="Path_211" data-name="Path 211" class="cls-3" d="M14.3,11.695a1.09,1.09,0,0,0-.544-.808l-3.53-2.018a1.113,1.113,0,0,0-1.334.175l-.7.69a.512.512,0,0,1-.681.038,20.047,20.047,0,0,1-1.6-1.433A20.01,20.01,0,0,1,4.468,6.746a.5.5,0,0,1,.038-.676l.7-.69a1.094,1.094,0,0,0,.176-1.324L3.345.55A1.11,1.11,0,0,0,1.605.321L.558,1.362C-.173,2.088-.185,3.416.525,5.1a16.518,16.518,0,0,0,3.586,5.024A16.632,16.632,0,0,0,9.17,13.688a5.933,5.933,0,0,0,2.215.52,2.121,2.121,0,0,0,1.55-.553l1.048-1.04a1.086,1.086,0,0,0,.314-.921ZM9.993,9.267l3.53,2.018a.635.635,0,0,1,.2.931L9.028,9.558l.19-.189a.647.647,0,0,1,.775-.1ZM2.471.466A.638.638,0,0,1,2.944.78L4.976,4.285a.636.636,0,0,1-.1.769L4.7,5.228,2.007.585A.637.637,0,0,1,2.386.46a.659.659,0,0,1,.086.006ZM12.608,13.33c-.581.577-1.769.553-3.259-.066A16.164,16.164,0,0,1,4.439,9.8,16.053,16.053,0,0,1,.952,4.924C.329,3.444.3,2.264.886,1.687L1.663.915l2.7,4.65-.181.18a.961.961,0,0,0-.071,1.29,20.471,20.471,0,0,0,1.476,1.63,20.527,20.527,0,0,0,1.641,1.466.977.977,0,0,0,1.3-.071L8.688,9.9l4.7,2.663Z" transform="translate(-0.001 0)"/>
    </g>
    <g id="phone-call-2" data-name="phone-call" transform="translate(218.549 1579.8)">
      <path id="Path_211-2" data-name="Path 211" class="cls-3" d="M14.3,11.695a1.09,1.09,0,0,0-.544-.808l-3.53-2.018a1.113,1.113,0,0,0-1.334.175l-.7.69a.512.512,0,0,1-.681.038,20.047,20.047,0,0,1-1.6-1.433A20.01,20.01,0,0,1,4.468,6.746a.5.5,0,0,1,.038-.676l.7-.69a1.094,1.094,0,0,0,.176-1.324L3.345.55A1.11,1.11,0,0,0,1.605.321L.558,1.362C-.173,2.088-.185,3.416.525,5.1a16.518,16.518,0,0,0,3.586,5.024A16.632,16.632,0,0,0,9.17,13.688a5.933,5.933,0,0,0,2.215.52,2.121,2.121,0,0,0,1.55-.553l1.048-1.04a1.086,1.086,0,0,0,.314-.921ZM9.993,9.267l3.53,2.018a.635.635,0,0,1,.2.931L9.028,9.558l.19-.189a.647.647,0,0,1,.775-.1ZM2.471.466A.638.638,0,0,1,2.944.78L4.976,4.285a.636.636,0,0,1-.1.769L4.7,5.228,2.007.585A.637.637,0,0,1,2.386.46a.659.659,0,0,1,.086.006ZM12.608,13.33c-.581.577-1.769.553-3.259-.066A16.164,16.164,0,0,1,4.439,9.8,16.053,16.053,0,0,1,.952,4.924C.329,3.444.3,2.264.886,1.687L1.663.915l2.7,4.65-.181.18a.961.961,0,0,0-.071,1.29,20.471,20.471,0,0,0,1.476,1.63,20.527,20.527,0,0,0,1.641,1.466.977.977,0,0,0,1.3-.071L8.688,9.9l4.7,2.663Z" transform="translate(-0.001 0)"/>
    </g>
    <g id="phone-call-3" data-name="phone-call" transform="translate(164.197 1646.8)">
      <path id="Path_211-3" data-name="Path 211" class="cls-3" d="M14.3,11.695a1.09,1.09,0,0,0-.544-.808l-3.53-2.018a1.113,1.113,0,0,0-1.334.175l-.7.69a.512.512,0,0,1-.681.038,20.047,20.047,0,0,1-1.6-1.433A20.01,20.01,0,0,1,4.468,6.746a.5.5,0,0,1,.038-.676l.7-.69a1.094,1.094,0,0,0,.176-1.324L3.345.55A1.11,1.11,0,0,0,1.605.321L.558,1.362C-.173,2.088-.185,3.416.525,5.1a16.518,16.518,0,0,0,3.586,5.024A16.632,16.632,0,0,0,9.17,13.688a5.933,5.933,0,0,0,2.215.52,2.121,2.121,0,0,0,1.55-.553l1.048-1.04a1.086,1.086,0,0,0,.314-.921ZM9.993,9.267l3.53,2.018a.635.635,0,0,1,.2.931L9.028,9.558l.19-.189a.647.647,0,0,1,.775-.1ZM2.471.466A.638.638,0,0,1,2.944.78L4.976,4.285a.636.636,0,0,1-.1.769L4.7,5.228,2.007.585A.637.637,0,0,1,2.386.46a.659.659,0,0,1,.086.006ZM12.608,13.33c-.581.577-1.769.553-3.259-.066A16.164,16.164,0,0,1,4.439,9.8,16.053,16.053,0,0,1,.952,4.924C.329,3.444.3,2.264.886,1.687L1.663.915l2.7,4.65-.181.18a.961.961,0,0,0-.071,1.29,20.471,20.471,0,0,0,1.476,1.63,20.527,20.527,0,0,0,1.641,1.466.977.977,0,0,0,1.3-.071L8.688,9.9l4.7,2.663Z" transform="translate(-0.001 0)"/>
    </g>
    <g id="phone-call-4" data-name="phone-call" transform="translate(312.209 1570.8)">
      <path id="Path_211-4" data-name="Path 211" class="cls-3" d="M14.3,11.695a1.09,1.09,0,0,0-.544-.808l-3.53-2.018a1.113,1.113,0,0,0-1.334.175l-.7.69a.512.512,0,0,1-.681.038,20.047,20.047,0,0,1-1.6-1.433A20.01,20.01,0,0,1,4.468,6.746a.5.5,0,0,1,.038-.676l.7-.69a1.094,1.094,0,0,0,.176-1.324L3.345.55A1.11,1.11,0,0,0,1.605.321L.558,1.362C-.173,2.088-.185,3.416.525,5.1a16.518,16.518,0,0,0,3.586,5.024A16.632,16.632,0,0,0,9.17,13.688a5.933,5.933,0,0,0,2.215.52,2.121,2.121,0,0,0,1.55-.553l1.048-1.04a1.086,1.086,0,0,0,.314-.921ZM9.993,9.267l3.53,2.018a.635.635,0,0,1,.2.931L9.028,9.558l.19-.189a.647.647,0,0,1,.775-.1ZM2.471.466A.638.638,0,0,1,2.944.78L4.976,4.285a.636.636,0,0,1-.1.769L4.7,5.228,2.007.585A.637.637,0,0,1,2.386.46a.659.659,0,0,1,.086.006ZM12.608,13.33c-.581.577-1.769.553-3.259-.066A16.164,16.164,0,0,1,4.439,9.8,16.053,16.053,0,0,1,.952,4.924C.329,3.444.3,2.264.886,1.687L1.663.915l2.7,4.65-.181.18a.961.961,0,0,0-.071,1.29,20.471,20.471,0,0,0,1.476,1.63,20.527,20.527,0,0,0,1.641,1.466.977.977,0,0,0,1.3-.071L8.688,9.9l4.7,2.663Z" transform="translate(-0.001 0)"/>
    </g>
    <g id="phone-call-5" data-name="phone-call" transform="translate(407.862 1553.8)">
      <path id="Path_211-5" data-name="Path 211" class="cls-3" d="M14.3,11.695a1.09,1.09,0,0,0-.544-.808l-3.53-2.018a1.113,1.113,0,0,0-1.334.175l-.7.69a.512.512,0,0,1-.681.038,20.047,20.047,0,0,1-1.6-1.433A20.01,20.01,0,0,1,4.468,6.746a.5.5,0,0,1,.038-.676l.7-.69a1.094,1.094,0,0,0,.176-1.324L3.345.55A1.11,1.11,0,0,0,1.605.321L.558,1.362C-.173,2.088-.185,3.416.525,5.1a16.518,16.518,0,0,0,3.586,5.024A16.632,16.632,0,0,0,9.17,13.688a5.933,5.933,0,0,0,2.215.52,2.121,2.121,0,0,0,1.55-.553l1.048-1.04a1.086,1.086,0,0,0,.314-.921ZM9.993,9.267l3.53,2.018a.635.635,0,0,1,.2.931L9.028,9.558l.19-.189a.647.647,0,0,1,.775-.1ZM2.471.466A.638.638,0,0,1,2.944.78L4.976,4.285a.636.636,0,0,1-.1.769L4.7,5.228,2.007.585A.637.637,0,0,1,2.386.46a.659.659,0,0,1,.086.006ZM12.608,13.33c-.581.577-1.769.553-3.259-.066A16.164,16.164,0,0,1,4.439,9.8,16.053,16.053,0,0,1,.952,4.924C.329,3.444.3,2.264.886,1.687L1.663.915l2.7,4.65-.181.18a.961.961,0,0,0-.071,1.29,20.471,20.471,0,0,0,1.476,1.63,20.527,20.527,0,0,0,1.641,1.466.977.977,0,0,0,1.3-.071L8.688,9.9l4.7,2.663Z" transform="translate(-0.001 0)"/>
    </g>
    <g id="phone-call-6" data-name="phone-call" transform="translate(407.862 1671.799)">
      <path id="Path_211-6" data-name="Path 211" class="cls-3" d="M14.3,11.695a1.09,1.09,0,0,0-.544-.808l-3.53-2.018a1.113,1.113,0,0,0-1.334.175l-.7.69a.512.512,0,0,1-.681.038,20.047,20.047,0,0,1-1.6-1.433A20.01,20.01,0,0,1,4.468,6.746a.5.5,0,0,1,.038-.676l.7-.69a1.094,1.094,0,0,0,.176-1.324L3.345.55A1.11,1.11,0,0,0,1.605.321L.558,1.362C-.173,2.088-.185,3.416.525,5.1a16.518,16.518,0,0,0,3.586,5.024A16.632,16.632,0,0,0,9.17,13.688a5.933,5.933,0,0,0,2.215.52,2.121,2.121,0,0,0,1.55-.553l1.048-1.04a1.086,1.086,0,0,0,.314-.921ZM9.993,9.267l3.53,2.018a.635.635,0,0,1,.2.931L9.028,9.558l.19-.189a.647.647,0,0,1,.775-.1ZM2.471.466A.638.638,0,0,1,2.944.78L4.976,4.285a.636.636,0,0,1-.1.769L4.7,5.228,2.007.585A.637.637,0,0,1,2.386.46a.659.659,0,0,1,.086.006ZM12.608,13.33c-.581.577-1.769.553-3.259-.066A16.164,16.164,0,0,1,4.439,9.8,16.053,16.053,0,0,1,.952,4.924C.329,3.444.3,2.264.886,1.687L1.663.915l2.7,4.65-.181.18a.961.961,0,0,0-.071,1.29,20.471,20.471,0,0,0,1.476,1.63,20.527,20.527,0,0,0,1.641,1.466.977.977,0,0,0,1.3-.071L8.688,9.9l4.7,2.663Z" transform="translate(-0.001 0)"/>
    </g>
    <path id="Path_82" data-name="Path 82" class="cls-4" d="M12.032,57.062S28.543,59.737,41.3,43.181,53.132,19.262,53.132,19.262" transform="translate(172.668 1586.838)"/>
    <path id="Path_81" data-name="Path 81" class="cls-4" d="M13.8-10.938S35.54-23.8,55.1.862s19.4,81.7,19.4,81.7" transform="translate(223.699 1586.838)"/>
    <path id="Path_80" data-name="Path 80" class="cls-4" d="M12.355,96.271S25.379,87.848,29.8,61.156A112.959,112.959,0,0,0,26.755,12.07" transform="translate(301.945 1578.729)"/>
    <path id="Path_79" data-name="Path 79" class="cls-4" d="M15.065,4.57s25.113,7.8,49.1,32.8,27.5,46.6,27.5,46.6" transform="translate(319.636 1578.729)"/>
    <path id="Path_83" data-name="Path 83" class="cls-4" d="M10.6-17.685s4.334-16.741,28.318-18.768S86.4-24.785,86.4-24.785" transform="translate(223.699 1590.584)"/>
    <path id="Path_85" data-name="Path 85" class="cls-4" d="M8.532-32.946s20.929-36.2,53.249-28.089S122.632-2.946,122.632-2.946" transform="translate(172.668 1673.146)"/>
    <path id="Path_84" data-name="Path 84" class="cls-4" d="M13.955,116.64s55.993-8.815,84.4-39.9,17.8-57.9,17.8-57.9" transform="translate(301.945 1561.16)"/>
    <path id="Path_78" data-name="Path 78" class="cls-4" d="M-6.236.8S-14.12-14.9,9.864-19.3s69.9,12.8,69.9,12.8" transform="translate(319.636 1562.897)"/>
  </g>
</svg>
