<svg xmlns="http://www.w3.org/2000/svg" viewBox="-16775.115 -3611.6 458.701 164.957">
  <defs>
    <style>
      .cls-1, .cls-2 {
        fill: #52be7f;
      }

      .cls-1 {
        font-size: 50px;
        font-family: Ubuntu-Regular, Ubuntu;
        letter-spacing: -0.015em;
      }

      .cls-3, .cls-6 {
        fill: none;
      }

      .cls-3, .cls-4 {
        stroke: #061c3f;
      }

      .cls-4 {
        fill: rgba(0,0,0,0);
      }

      .cls-5 {
        stroke: none;
      }
    </style>
  </defs>
  <g id="Group_311" data-name="Group 311" transform="translate(-17258 -3820)">
    <g id="Group_249" data-name="Group 249" transform="translate(569.586 250.357)">
      <text id="E-Freight" class="cls-1" transform="translate(0 0)"><tspan x="0" y="47">E-Freight</tspan></text>
    </g>
    <g id="Group_310" data-name="Group 310" transform="translate(482.884 208.9)">
      <path id="Path_351" data-name="Path 351" class="cls-2" d="M-91.4-2.407s1.943-5.648,6.733-7.456,9.805,1.446,9.805,1.446,5.016,3.705,4.293,9.941-6.868,8.766-6.868,8.766a90.342,90.342,0,0,0-14.911,8.134,150.9,150.9,0,0,0-21.237,17.4c-9.418,9.265-17.783,19.6-22.141,26.66a22.6,22.6,0,0,0-3.163,7.636,12.1,12.1,0,0,0,.542,4.157,16.736,16.736,0,0,0,2.214,4.067s7.953,11.025,20.6,25.3,36.963,27.112,36.963,27.112,7.275,2.214,7.908,8.676a11.372,11.372,0,0,1-3.751,9.851s-4.247,3.434-9.443,2.169-7.276-7-7.276-7a149.437,149.437,0,0,0-11.612-20.876c-5.119-7.483-12.137-14.153-18.074-20.65-14.415-14.6-33.89-22.819-35.561-23.949a9.472,9.472,0,0,1-2.711-3.344s-2.158-5.2-.543-9.037,7-6.326,7-6.326,20.6-9.579,36.872-27.021A144.877,144.877,0,0,0-91.4-2.407Z" transform="translate(160.577 10.451)"/>
      <path id="Path_350" data-name="Path 350" class="cls-3" d="M11.119.5A10.619,10.619,0,1,1,1.3,15.176a10.425,10.425,0,0,1-.8-4.057A10.619,10.619,0,0,1,11.119.5Z" transform="translate(68.409 -0.5)"/>
      <g id="Ellipse_192" data-name="Ellipse 192" class="cls-3" transform="translate(68.683 140.755)">
        <ellipse class="cls-5" cx="10.845" cy="10.845" rx="10.845" ry="10.845"/>
        <ellipse class="cls-6" cx="10.845" cy="10.845" rx="10.345" ry="10.345"/>
      </g>
      <g id="Ellipse_190" data-name="Ellipse 190" class="cls-3" transform="translate(0 70.265)">
        <ellipse class="cls-5" cx="10.845" cy="10.845" rx="10.845" ry="10.845"/>
        <ellipse class="cls-6" cx="10.845" cy="10.845" rx="10.345" ry="10.345"/>
      </g>
      <g id="Group_283" data-name="Group 283" transform="translate(6.552 6.552)">
        <path id="Path_342" data-name="Path 342" class="cls-4" d="M1.6,55.946s7.23-12.7,24.581-30.094A121.286,121.286,0,0,1,61.652,1" transform="translate(15.164 13.008)"/>
        <path id="Path_343" data-name="Path 343" class="cls-4" d="M0,64.842a132.883,132.883,0,0,1,26.344-38.86C44.418,7.636,63.171,0,63.171,0" transform="translate(63.171 64.842) rotate(180)"/>
      </g>
      <path id="Path_348" data-name="Path 348" class="cls-4" d="M0,60.369a125.293,125.293,0,0,1,25.033-35.7C42.385,7.276,55.037,0,55.037,0" transform="translate(23.135 141.749) rotate(-90)"/>
      <path id="Path_349" data-name="Path 349" class="cls-4" d="M0,63.261S7.817,43.876,26.931,25.53,64.887,0,64.887,0" transform="translate(69.723 90.779) rotate(90)"/>
      <path id="Path_347" data-name="Path 347" class="cls-4" d="M-2.3-.1A15.283,15.283,0,0,0-4.2,6.271a10.222,10.222,0,0,0,1.717,5.422" transform="translate(25.799 75.29)"/>
    </g>
  </g>
</svg>
