<svg xmlns="http://www.w3.org/2000/svg" viewBox="7640.5 4917.5 275 152">
  <defs>
    <style>
      .cls-1 {
        fill: #52be7f;
      }

      .cls-2 {
        fill: none;
      }

      .cls-2, .cls-3 {
        stroke: #54698d;
      }

      .cls-3 {
        fill: rgba(0,0,0,0);
      }
    </style>
  </defs>
  <g id="Group_222" data-name="Group 222" transform="translate(15179 -3667)">
    <path id="Path_160" data-name="Path 160" class="cls-1" d="M.5.5S.4-.9,2.5-.9,4.5.5,4.5.5v33s.1.8-2,.8-2-.8-2-.8Z" transform="translate(-7365 8701)"/>
    <path id="Path_249" data-name="Path 249" class="cls-1" d="M.5.5S.4-.9,2.5-.9,4.5.5,4.5.5v33s.1.8-2,.8-2-.8-2-.8Z" transform="translate(-7444 8701)"/>
    <path id="Path_251" data-name="Path 251" class="cls-1" d="M.5.5S.4-.9,2.5-.9,4.5.5,4.5.5v33s.1.8-2,.8-2-.8-2-.8Z" transform="translate(-7523 8701)"/>
    <path id="Path_247" data-name="Path 247" class="cls-1" d="M.5.5S.4-.9,2.5-.9,4.5.5,4.5.5v33s.1.8-2,.8-2-.8-2-.8Z" transform="translate(-7286 8701)"/>
    <line id="Line_152" data-name="Line 152" class="cls-2" x2="275" transform="translate(-7538.5 8588.5)"/>
    <line id="Line_153" data-name="Line 153" class="cls-2" y2="150" transform="translate(-7267.5 8586.5)"/>
    <line id="Line_154" data-name="Line 154" class="cls-2" x2="275" transform="translate(-7538.5 8732.5)"/>
    <line id="Line_155" data-name="Line 155" class="cls-2" y1="152" transform="translate(-7534.5 8584.5)"/>
    <line id="Line_156" data-name="Line 156" class="cls-2" x1="33" transform="translate(-7538.5 8683.5)"/>
    <line id="Line_184" data-name="Line 184" class="cls-2" x1="33" transform="translate(-7296.5 8683.5)"/>
    <line id="Line_157" data-name="Line 157" class="cls-2" x1="28" transform="translate(-7454.5 8683.5)"/>
    <line id="Line_183" data-name="Line 183" class="cls-2" x1="28" transform="translate(-7375.5 8683.5)"/>
    <g id="Group_219" data-name="Group 219">
      <rect id="Rectangle_183" data-name="Rectangle 183" class="cls-1" width="42" height="66" rx="7" transform="translate(-7504 8638)"/>
      <line id="Line_158" data-name="Line 158" class="cls-2" x2="59" transform="translate(-7509.5 8628.5)"/>
      <line id="Line_180" data-name="Line 180" class="cls-2" x2="59" transform="translate(-7509.5 8626.5)"/>
      <line id="Line_159" data-name="Line 159" class="cls-2" x2="59" transform="translate(-7509.5 8706.5)"/>
      <line id="Line_182" data-name="Line 182" class="cls-2" x2="59" transform="translate(-7509.5 8708.5)"/>
      <line id="Line_165" data-name="Line 165" class="cls-2" x2="49" transform="translate(-7504.5 8634.5)"/>
      <line id="Line_160" data-name="Line 160" class="cls-2" y2="84" transform="translate(-7506.5 8625.5)"/>
      <line id="Line_181" data-name="Line 181" class="cls-2" y2="84" transform="translate(-7508.5 8625.5)"/>
      <line id="Line_161" data-name="Line 161" class="cls-2" y2="84" transform="translate(-7453.5 8625.5)"/>
      <line id="Line_179" data-name="Line 179" class="cls-2" y2="84" transform="translate(-7451.5 8625.5)"/>
      <line id="Line_162" data-name="Line 162" class="cls-2" y2="73" transform="translate(-7459.5 8630.5)"/>
      <line id="Line_164" data-name="Line 164" class="cls-2" y2="73" transform="translate(-7500.5 8630.5)"/>
      <line id="Line_166" data-name="Line 166" class="cls-2" x2="49" transform="translate(-7504.5 8639.5)"/>
      <line id="Line_170" data-name="Line 170" class="cls-2" x2="49" transform="translate(-7504.5 8655)"/>
      <line id="Line_178" data-name="Line 178" class="cls-2" x2="49" transform="translate(-7504.5 8680.5)"/>
      <line id="Line_169" data-name="Line 169" class="cls-2" x2="49" transform="translate(-7504.5 8650)"/>
      <line id="Line_172" data-name="Line 172" class="cls-2" x2="49" transform="translate(-7504.5 8670.5)"/>
      <line id="Line_176" data-name="Line 176" class="cls-2" x2="49" transform="translate(-7504.5 8696)"/>
      <line id="Line_167" data-name="Line 167" class="cls-2" x2="49" transform="translate(-7504.5 8644.5)"/>
      <line id="Line_171" data-name="Line 171" class="cls-2" x2="49" transform="translate(-7504.5 8665)"/>
      <line id="Line_175" data-name="Line 175" class="cls-2" x2="49" transform="translate(-7504.5 8690.5)"/>
      <line id="Line_168" data-name="Line 168" class="cls-2" x2="49" transform="translate(-7504.5 8660)"/>
      <line id="Line_174" data-name="Line 174" class="cls-2" x2="49" transform="translate(-7504.5 8685.5)"/>
      <line id="Line_173" data-name="Line 173" class="cls-2" x2="49" transform="translate(-7504.5 8675.5)"/>
      <line id="Line_177" data-name="Line 177" class="cls-2" x2="49" transform="translate(-7504.5 8701)"/>
    </g>
    <g id="Group_220" data-name="Group 220" transform="translate(79)">
      <rect id="Rectangle_183-2" data-name="Rectangle 183" class="cls-1" width="42" height="66" rx="7" transform="translate(-7504 8638)"/>
      <line id="Line_158-2" data-name="Line 158" class="cls-2" x2="59" transform="translate(-7509.5 8628.5)"/>
      <line id="Line_180-2" data-name="Line 180" class="cls-2" x2="59" transform="translate(-7509.5 8626.5)"/>
      <line id="Line_159-2" data-name="Line 159" class="cls-2" x2="59" transform="translate(-7509.5 8706.5)"/>
      <line id="Line_182-2" data-name="Line 182" class="cls-2" x2="59" transform="translate(-7509.5 8708.5)"/>
      <line id="Line_165-2" data-name="Line 165" class="cls-2" x2="49" transform="translate(-7504.5 8634.5)"/>
      <line id="Line_160-2" data-name="Line 160" class="cls-2" y2="84" transform="translate(-7506.5 8625.5)"/>
      <line id="Line_181-2" data-name="Line 181" class="cls-2" y2="84" transform="translate(-7508.5 8625.5)"/>
      <line id="Line_161-2" data-name="Line 161" class="cls-2" y2="84" transform="translate(-7453.5 8625.5)"/>
      <line id="Line_179-2" data-name="Line 179" class="cls-2" y2="84" transform="translate(-7451.5 8625.5)"/>
      <line id="Line_162-2" data-name="Line 162" class="cls-2" y2="73" transform="translate(-7459.5 8630.5)"/>
      <line id="Line_164-2" data-name="Line 164" class="cls-2" y2="73" transform="translate(-7500.5 8630.5)"/>
      <line id="Line_166-2" data-name="Line 166" class="cls-2" x2="49" transform="translate(-7504.5 8639.5)"/>
      <line id="Line_170-2" data-name="Line 170" class="cls-2" x2="49" transform="translate(-7504.5 8655)"/>
      <line id="Line_178-2" data-name="Line 178" class="cls-2" x2="49" transform="translate(-7504.5 8680.5)"/>
      <line id="Line_169-2" data-name="Line 169" class="cls-2" x2="49" transform="translate(-7504.5 8650)"/>
      <line id="Line_172-2" data-name="Line 172" class="cls-2" x2="49" transform="translate(-7504.5 8670.5)"/>
      <line id="Line_176-2" data-name="Line 176" class="cls-2" x2="49" transform="translate(-7504.5 8696)"/>
      <line id="Line_167-2" data-name="Line 167" class="cls-2" x2="49" transform="translate(-7504.5 8644.5)"/>
      <line id="Line_171-2" data-name="Line 171" class="cls-2" x2="49" transform="translate(-7504.5 8665)"/>
      <line id="Line_175-2" data-name="Line 175" class="cls-2" x2="49" transform="translate(-7504.5 8690.5)"/>
      <line id="Line_168-2" data-name="Line 168" class="cls-2" x2="49" transform="translate(-7504.5 8660)"/>
      <line id="Line_174-2" data-name="Line 174" class="cls-2" x2="49" transform="translate(-7504.5 8685.5)"/>
      <line id="Line_173-2" data-name="Line 173" class="cls-2" x2="49" transform="translate(-7504.5 8675.5)"/>
      <line id="Line_177-2" data-name="Line 177" class="cls-2" x2="49" transform="translate(-7504.5 8701)"/>
    </g>
    <g id="Group_221" data-name="Group 221" transform="translate(158)">
      <rect id="Rectangle_183-3" data-name="Rectangle 183" class="cls-1" width="42" height="66" rx="7" transform="translate(-7504 8638)"/>
      <line id="Line_158-3" data-name="Line 158" class="cls-2" x2="59" transform="translate(-7509.5 8628.5)"/>
      <line id="Line_180-3" data-name="Line 180" class="cls-2" x2="59" transform="translate(-7509.5 8626.5)"/>
      <line id="Line_159-3" data-name="Line 159" class="cls-2" x2="59" transform="translate(-7509.5 8706.5)"/>
      <line id="Line_182-3" data-name="Line 182" class="cls-2" x2="59" transform="translate(-7509.5 8708.5)"/>
      <line id="Line_165-3" data-name="Line 165" class="cls-2" x2="49" transform="translate(-7504.5 8634.5)"/>
      <line id="Line_160-3" data-name="Line 160" class="cls-2" y2="84" transform="translate(-7506.5 8625.5)"/>
      <line id="Line_181-3" data-name="Line 181" class="cls-2" y2="84" transform="translate(-7508.5 8625.5)"/>
      <line id="Line_161-3" data-name="Line 161" class="cls-2" y2="84" transform="translate(-7453.5 8625.5)"/>
      <line id="Line_179-3" data-name="Line 179" class="cls-2" y2="84" transform="translate(-7451.5 8625.5)"/>
      <line id="Line_162-3" data-name="Line 162" class="cls-2" y2="73" transform="translate(-7459.5 8630.5)"/>
      <line id="Line_164-3" data-name="Line 164" class="cls-2" y2="73" transform="translate(-7500.5 8630.5)"/>
      <line id="Line_166-3" data-name="Line 166" class="cls-2" x2="49" transform="translate(-7504.5 8639.5)"/>
      <line id="Line_170-3" data-name="Line 170" class="cls-2" x2="49" transform="translate(-7504.5 8655)"/>
      <line id="Line_178-3" data-name="Line 178" class="cls-2" x2="49" transform="translate(-7504.5 8680.5)"/>
      <line id="Line_169-3" data-name="Line 169" class="cls-2" x2="49" transform="translate(-7504.5 8650)"/>
      <line id="Line_172-3" data-name="Line 172" class="cls-2" x2="49" transform="translate(-7504.5 8670.5)"/>
      <line id="Line_176-3" data-name="Line 176" class="cls-2" x2="49" transform="translate(-7504.5 8696)"/>
      <line id="Line_167-3" data-name="Line 167" class="cls-2" x2="49" transform="translate(-7504.5 8644.5)"/>
      <line id="Line_171-3" data-name="Line 171" class="cls-2" x2="49" transform="translate(-7504.5 8665)"/>
      <line id="Line_175-3" data-name="Line 175" class="cls-2" x2="49" transform="translate(-7504.5 8690.5)"/>
      <line id="Line_168-3" data-name="Line 168" class="cls-2" x2="49" transform="translate(-7504.5 8660)"/>
      <line id="Line_174-3" data-name="Line 174" class="cls-2" x2="49" transform="translate(-7504.5 8685.5)"/>
      <line id="Line_173-3" data-name="Line 173" class="cls-2" x2="49" transform="translate(-7504.5 8675.5)"/>
      <line id="Line_177-3" data-name="Line 177" class="cls-2" x2="49" transform="translate(-7504.5 8701)"/>
    </g>
    <line id="Line_185" data-name="Line 185" class="cls-2" y1="41" transform="translate(-7363.5 8694.5)"/>
    <line id="Line_189" data-name="Line 189" class="cls-2" y1="41" transform="translate(-7442.5 8694.5)"/>
    <line id="Line_191" data-name="Line 191" class="cls-2" y1="41" transform="translate(-7521.5 8694.5)"/>
    <line id="Line_187" data-name="Line 187" class="cls-2" y1="41" transform="translate(-7284.5 8694.5)"/>
    <line id="Line_186" data-name="Line 186" class="cls-2" y1="41" transform="translate(-7359.5 8694.5)"/>
    <line id="Line_190" data-name="Line 190" class="cls-2" y1="41" transform="translate(-7438.5 8694.5)"/>
    <line id="Line_192" data-name="Line 192" class="cls-2" y1="41" transform="translate(-7517.5 8694.5)"/>
    <line id="Line_188" data-name="Line 188" class="cls-2" y1="41" transform="translate(-7280.5 8694.5)"/>
    <path id="Path_245" data-name="Path 245" class="cls-3" d="M-1.7.9A3.777,3.777,0,0,1,2-1.3,3.571,3.571,0,0,1,5.6.9" transform="translate(-7363.5 8697.5)"/>
    <path id="Path_248" data-name="Path 248" class="cls-3" d="M-1.7.9A3.777,3.777,0,0,1,2-1.3,3.571,3.571,0,0,1,5.6.9" transform="translate(-7442.5 8697.5)"/>
    <path id="Path_250" data-name="Path 250" class="cls-3" d="M-1.7.9A3.777,3.777,0,0,1,2-1.3,3.571,3.571,0,0,1,5.6.9" transform="translate(-7521.5 8697.5)"/>
    <path id="Path_246" data-name="Path 246" class="cls-3" d="M-1.7.9A3.777,3.777,0,0,1,2-1.3,3.571,3.571,0,0,1,5.6.9" transform="translate(-7284.5 8697.5)"/>
  </g>
</svg>
