<svg xmlns="http://www.w3.org/2000/svg" viewBox="-20758 -10187 320 215">
  <defs>
    <style>
      .cls-1 {
        fill: #52be7f;
      }

      .cls-1, .cls-2, .cls-3, .cls-4, .cls-5, .cls-6 {
        stroke: #16325c;
      }

      .cls-1, .cls-2, .cls-4, .cls-5, .cls-6 {
        stroke-width: 8px;
      }

      .cls-2 {
        fill: #fafbfd;
      }

      .cls-3, .cls-4, .cls-9 {
        fill: none;
      }

      .cls-3 {
        stroke-width: 4px;
      }

      .cls-5 {
        fill: rgba(0,0,0,0);
      }

      .cls-6 {
        fill: #fff;
      }

      .cls-7 {
        fill: #061c3f;
        font-size: 30px;
        font-family: Ubuntu-Regular, Ubuntu;
        letter-spacing: 0.007em;
      }

      .cls-8 {
        stroke: none;
      }
    </style>
  </defs>
  <g id="Group_547" data-name="Group 547" transform="translate(-361 339)">
    <path id="Path_485" data-name="Path 485" class="cls-1" d="M4,38.5S3.9,20.084,9.1,13.263,22.8,4,22.8,4H76s16.7.569,26.2,6.653S114,28.337,114,28.337V84H4Z" transform="translate(-20195 -10399)"/>
    <g id="Rectangle_445" data-name="Rectangle 445" class="cls-2" transform="translate(-20397 -10482)">
      <rect class="cls-8" width="183" height="122" rx="6"/>
      <rect class="cls-9" x="4" y="4" width="175" height="114" rx="2"/>
    </g>
    <path id="Path_486" data-name="Path 486" class="cls-1" d="M5.924,4H41.807A2,2,0,0,1,43.8,6.006L22.669,96.994A2,2,0,0,1,20.676,99H-15.206A2,2,0,0,1-17.2,96.994L3.931,6.006A2,2,0,0,1,5.924,4Z" transform="translate(-20334 -10414)"/>
    <g id="Rectangle_448" data-name="Rectangle 448" class="cls-3" transform="translate(-20321 -10319)">
      <rect class="cls-8" width="69" height="8" rx="4"/>
      <rect class="cls-9" x="2" y="2" width="65" height="4" rx="2"/>
    </g>
    <g id="Rectangle_449" data-name="Rectangle 449" class="cls-4" transform="translate(-20268 -10327)">
      <rect class="cls-8" width="38" height="16" rx="8"/>
      <rect class="cls-9" x="4" y="4" width="30" height="8" rx="4"/>
    </g>
    <path id="Path_489" data-name="Path 489" class="cls-4" d="M6.5,2l56,2A2.5,2.5,0,0,1,65,6.5c0,1.381-1.119,3.4-2.5,3.4H6.5C5.119,9.9,4,7.881,4,6.5S5.119,2,6.5,2Z" transform="translate(-20246 -10325)"/>
    <g id="Rectangle_447" data-name="Rectangle 447" class="cls-3" transform="translate(-20205.5 -10477.5) rotate(90)">
      <rect class="cls-8" width="115" height="8" rx="4"/>
      <rect class="cls-9" x="2" y="2" width="111" height="4" rx="2"/>
    </g>
    <path id="Path_487" data-name="Path 487" class="cls-2" d="M4,4H69V37.2s-.7,10.15-5.2,16.1S51,61,51,61H23.6s-6.055.345-13.1-6.7S4,39.4,4,39.4Z" transform="translate(-20179 -10450)"/>
    <path id="Path_488" data-name="Path 488" class="cls-1" d="M6,4H75a2,2,0,0,1,2,2V20.2c0,.545-4.525,7.449-11.5,12.4A51.818,51.818,0,0,1,49.1,40H28.8a42.352,42.352,0,0,1-14.7-7.4C8.341,28.021,4,20.745,4,20.2V6A2,2,0,0,1,6,4Z" transform="translate(-20191 -10473)"/>
    <path id="Path_490" data-name="Path 490" class="cls-1" d="M5.1,4h37.81A1.1,1.1,0,0,1,44,5.1v7.781a21.856,21.856,0,0,1-6.3,6.794,28.394,28.394,0,0,1-8.987,4.055H17.589a23.207,23.207,0,0,1-8.055-4.055A22.147,22.147,0,0,1,4,12.877V5.1A1.1,1.1,0,0,1,5.1,4Z" transform="translate(-20099.773 -10466.5) rotate(90)"/>
    <path id="Path_491" data-name="Path 491" class="cls-5" d="M0,39s21.9,1.7,28.4-11.9,4.3-37.4,4.3-37.4" transform="translate(-20131.5 -10415.5)"/>
    <g id="Ellipse_173" data-name="Ellipse 173" class="cls-6" transform="translate(-20141 -10383)">
      <ellipse class="cls-8" cx="7" cy="6.5" rx="7" ry="6.5"/>
      <ellipse class="cls-9" cx="7" cy="6.5" rx="3" ry="2.5"/>
    </g>
    <g id="Rectangle_450" data-name="Rectangle 450" class="cls-2" transform="translate(-20110 -10450)">
      <rect class="cls-8" width="23" height="26" rx="6"/>
      <rect class="cls-9" x="4" y="4" width="15" height="18" rx="2"/>
    </g>
    <text id="Spedytor" class="cls-7" transform="translate(-20397 -10526)"><tspan x="0" y="28">Spedytor</tspan></text>
  </g>
</svg>
